<?xml version="1.0" standalone="no"?><!DOCTYPE svg PUBLIC "-//W3C//DTD SVG 1.1//EN" "http://www.w3.org/Graphics/SVG/1.1/DTD/svg11.dtd"><svg t="1593049033959" class="icon" viewBox="0 0 1024 1024" version="1.1" xmlns="http://www.w3.org/2000/svg" p-id="2962" xmlns:xlink="http://www.w3.org/1999/xlink" width="200" height="200"><defs><style type="text/css"></style></defs><path d="M512.176009 61.690014c-246.707868 0-447.418123 200.710254-447.418123 447.418123s200.710254 447.418123 447.418123 447.418122S959.594131 755.816005 959.594131 509.108137 758.883877 61.690014 512.176009 61.690014z m0 813.488519c-201.843054 0-366.069373-164.206876-366.069373-366.069373s164.227342-366.069373 366.069373-366.069373S878.246405 307.245639 878.246405 509.10916 714.019063 875.178533 512.176009 875.178533z" p-id="2963"></path><path d="M586.117045 653.296073h-33.266662V472.127897c0-22.482037-18.21178-40.674375-40.674374-40.674374h-73.960479c-22.462594 0-40.674375 18.192338-40.674375 40.674374s18.21178 40.674375 40.674375 40.674375h33.286104v140.493801h-33.286104c-22.462594 0-40.674375 18.192338-40.674375 40.674375s18.21178 40.674375 40.674375 40.674375h147.901515c22.462594 0 40.674375-18.192338 40.674374-40.674375s-18.21178-40.674375-40.674374-40.674375zM512.176009 401.861554c22.462594 0 40.674375-18.192338 40.674374-40.674375V324.20694c0-22.482037-18.21178-40.674375-40.674374-40.674375-22.462594 0-40.674375 18.192338-40.674375 40.674375v36.980239c0 22.482037 18.212804 40.674375 40.674375 40.674375z" p-id="2964"></path></svg>